<?xml version="1.0" standalone="no"?>
<!DOCTYPE svg PUBLIC "-//W3C//DTD SVG 20010904//EN"
 "http://www.w3.org/TR/2001/REC-SVG-20010904/DTD/svg10.dtd">
<svg version="1.0" xmlns="http://www.w3.org/2000/svg"
 width="512.000000pt" height="512.000000pt" viewBox="0 0 512.000000 512.000000"
 preserveAspectRatio="xMidYMid meet">
<metadata>
Created by potrace 1.14, written by Peter Selinger 2001-2017
</metadata>
<g transform="translate(0.000000,512.000000) scale(0.100000,-0.100000)"
fill="#000000" stroke="none">
<path d="M0 4650 l0 -471 28 33 c28 34 40 52 70 102 43 73 158 204 306 349 88
86 166 157 173 157 6 0 13 4 15 8 8 20 192 154 263 193 44 23 91 50 104 61 13
10 32 18 42 18 11 0 19 5 19 10 0 7 -177 10 -510 10 l-510 0 0 -470z"/>
<path d="M1360 5111 c0 -5 6 -13 13 -19 10 -8 13 -6 14 9 1 10 -5 19 -13 19
-8 0 -14 -4 -14 -9z"/>
<path d="M2813 5101 c-24 -20 -30 -41 -13 -41 6 0 10 -7 10 -16 0 -8 -4 -13
-8 -10 -5 3 -3 -16 3 -42 9 -32 9 -56 2 -75 -7 -20 -6 -32 2 -40 15 -15 15
-101 -1 -91 -7 4 -8 3 -4 -4 4 -6 0 -24 -8 -40 l-15 -29 -211 -1 -211 0 -21
29 c-15 20 -31 29 -49 29 -43 0 -115 -35 -122 -59 -7 -27 -33 -36 -192 -71
-236 -52 -273 -64 -460 -156 -49 -24 -101 -47 -115 -50 -14 -4 -38 -17 -55
-30 -16 -12 -34 -22 -39 -22 -4 0 -28 -16 -51 -36 -39 -32 -85 -50 -71 -27 3
5 -1 11 -9 15 -10 3 -15 -1 -15 -13 0 -11 6 -21 12 -23 7 -3 -7 -18 -32 -34
-25 -16 -46 -32 -48 -36 -2 -5 -9 -8 -16 -8 -6 0 -19 -8 -27 -17 -21 -24 -58
-53 -66 -53 -12 0 -92 -65 -93 -75 0 -13 -40 -39 -60 -40 -8 0 -19 -10 -25
-23 -5 -12 -15 -20 -21 -18 -7 3 -20 -1 -30 -9 -13 -9 -24 -10 -36 -4 -11 6
-19 5 -24 -2 -4 -8 -9 -7 -15 2 -4 7 -10 11 -13 8 -3 -3 3 -15 14 -27 22 -24
27 -40 7 -24 -7 6 -17 8 -23 4 -16 -12 -44 -60 -44 -77 0 -9 -6 -15 -13 -13
-13 3 -77 -41 -77 -54 0 -4 7 -8 15 -8 19 0 15 -28 -9 -65 -11 -16 -20 -36
-21 -44 -2 -26 -16 -54 -44 -91 -17 -23 -28 -53 -31 -85 -4 -40 -9 -50 -23
-49 -19 2 -22 -7 -6 -23 7 -7 7 -17 1 -29 -6 -11 -16 -39 -23 -63 -7 -24 -19
-45 -26 -48 -7 -3 -10 -9 -7 -14 9 -15 -6 -49 -21 -49 -8 0 -17 5 -21 12 -5 7
-3 8 6 3 9 -6 11 -4 5 4 -5 9 -10 10 -18 2 -6 -6 -17 -7 -26 -2 -29 15 -101
24 -101 12 0 -6 9 -11 20 -11 19 0 28 -28 15 -42 -13 -13 -55 5 -55 23 0 11
-4 19 -10 19 -5 0 -7 7 -4 15 4 8 1 15 -5 15 -6 0 -11 -6 -12 -12 0 -7 -4 -4
-8 7 -8 19 -8 19 -20 -3 -16 -30 -34 -28 -28 4 3 18 1 22 -6 15 -7 -7 -14 -5
-22 6 -7 10 -19 14 -29 10 -15 -6 -16 -70 -16 -791 0 -500 4 -787 10 -791 6
-3 11 -18 11 -33 1 -20 2 -22 6 -7 2 11 6 30 9 43 2 12 11 22 20 22 9 0 12 5
8 13 -4 6 -4 9 0 6 4 -4 19 -4 34 0 19 5 27 14 27 32 0 13 5 24 10 24 6 0 16
4 23 9 9 5 22 0 37 -14 l23 -22 7 46 c4 25 11 46 16 46 5 0 9 -4 9 -10 0 -5 9
-10 20 -10 11 0 20 -4 20 -9 0 -5 13 -14 30 -21 16 -7 30 -18 30 -25 0 -7 7
-16 16 -19 8 -3 13 -10 9 -15 -3 -5 8 -30 25 -54 16 -25 30 -52 30 -61 0 -9 5
-16 10 -16 6 0 16 -12 22 -27 6 -16 22 -50 34 -77 21 -44 22 -51 9 -66 -8 -9
-12 -20 -8 -25 5 -4 3 -5 -4 -1 -6 3 -14 2 -18 -4 -6 -10 9 -19 40 -24 9 -1
20 -8 24 -15 5 -7 11 -12 15 -12 17 3 26 0 24 -7 -1 -4 14 -24 35 -45 22 -23
37 -47 37 -62 0 -15 13 -37 36 -57 47 -43 60 -68 43 -79 -10 -6 -11 -9 -1 -9
6 0 12 -7 12 -15 0 -9 9 -15 21 -15 21 0 21 0 -2 20 l-24 20 32 -17 c18 -10
33 -26 33 -35 0 -10 6 -18 13 -18 8 0 24 -11 37 -25 21 -22 22 -29 12 -45 -18
-29 -15 -35 8 -15 19 18 21 16 24 -15 1 -8 7 -14 13 -13 12 3 12 -22 0 -33
-12 -12 -8 -24 8 -24 8 0 15 6 15 14 0 31 21 25 59 -16 29 -31 39 -49 35 -64
-3 -12 -1 -25 4 -28 5 -3 9 0 8 7 0 6 4 13 9 14 6 2 10 -5 10 -15 0 -9 8 -28
18 -42 14 -20 19 -22 26 -11 7 11 11 10 20 -7 7 -14 17 -19 31 -15 15 4 26 -1
36 -16 8 -11 22 -21 30 -21 8 0 14 -9 14 -20 0 -11 -7 -20 -15 -20 -8 0 -15 7
-15 15 0 8 -7 15 -15 15 -24 0 -17 -19 10 -32 19 -9 28 -9 37 0 16 16 25 15
25 -3 0 -8 -4 -15 -8 -15 -3 0 -9 -9 -12 -20 -3 -11 -3 -20 0 -20 9 0 48 23
61 37 12 11 19 9 45 -13 25 -21 32 -35 32 -63 0 -39 9 -42 68 -26 20 5 27 4
27 -7 0 -10 11 -15 31 -16 45 -1 89 -12 89 -23 0 -5 20 -14 45 -20 25 -6 45
-15 45 -20 0 -5 9 -9 19 -9 11 0 23 -4 26 -10 3 -5 15 -10 26 -10 11 0 17 -4
14 -10 -3 -5 1 -20 9 -32 9 -12 16 -29 16 -38 0 -9 9 -22 20 -30 29 -21 27
-87 -5 -134 -14 -20 -25 -43 -25 -50 0 -17 -28 -72 -35 -68 -14 6 -18 0 -5 -8
13 -8 13 -10 -2 -10 -9 0 -22 8 -28 18 -8 13 -9 11 -4 -13 13 -60 -45 -56 883
-54 672 1 852 4 839 13 -10 7 -16 25 -16 42 1 16 -4 39 -10 50 -6 12 -9 30 -6
42 5 16 1 21 -18 24 -17 2 -24 10 -26 31 -2 15 -8 25 -13 22 -15 -10 -10 7 9
28 17 19 16 20 -7 7 -18 -9 -22 -9 -16 0 4 7 2 16 -5 20 -9 6 -9 12 -1 29 7
12 9 26 6 31 -8 13 25 61 36 54 5 -3 9 -1 9 5 0 9 141 81 159 81 5 0 12 -7 15
-16 3 -8 10 -13 15 -9 6 3 8 12 4 20 -3 10 1 15 12 15 9 0 19 -9 22 -19 5 -19
6 -19 39 2 19 12 37 32 40 45 4 14 12 21 20 18 8 -3 14 1 14 9 0 21 51 45 103
48 9 1 17 7 17 14 0 7 12 20 28 30 15 9 46 33 68 53 86 73 97 81 113 77 9 -2
15 -9 13 -16 -1 -7 2 -9 9 -6 8 5 8 10 0 18 -17 17 -14 22 30 53 23 16 56 42
74 59 53 50 86 75 98 75 11 0 67 62 67 74 0 3 13 19 29 35 16 17 32 39 36 50
3 12 11 21 16 21 5 0 17 16 26 35 9 19 21 35 25 35 17 0 102 92 105 113 2 12
10 39 18 60 8 20 15 45 15 55 0 20 53 76 67 70 4 -1 11 25 14 59 3 33 14 78
24 100 9 21 30 66 46 99 16 34 29 66 29 72 0 10 59 35 61 26 1 -2 2 -8 3 -14
1 -11 10 -14 27 -8 7 2 7 12 0 30 -7 19 -7 29 1 34 7 5 8 3 4 -5 -5 -8 -3 -12
5 -10 35 4 59 -2 59 -16 0 -8 -3 -15 -8 -15 -4 0 -7 -14 -7 -30 -1 -17 4 -30
11 -30 13 0 28 46 19 60 -4 6 8 10 24 10 17 0 31 -3 31 -8 0 -4 9 -13 21 -20
68 -43 96 127 85 513 -3 127 -7 393 -7 593 -1 348 -2 362 -20 362 -10 0 -19
-4 -19 -10 0 -5 -6 -10 -14 -10 -8 0 -16 -7 -20 -15 -8 -22 -26 -19 -26 4 0
28 -11 32 -56 20 -28 -8 -39 -8 -42 0 -7 22 -24 10 -18 -13 4 -15 0 -32 -12
-45 -18 -23 -62 -37 -62 -20 0 5 -11 7 -23 5 -29 -5 -40 1 -58 34 -17 32 -39
112 -32 122 2 5 -2 8 -10 8 -10 0 -13 7 -10 20 4 14 0 20 -10 20 -16 0 -77
113 -77 142 0 7 -11 30 -25 50 -14 20 -25 42 -25 47 0 6 -4 11 -9 11 -5 0 -11
10 -15 23 -3 12 -32 54 -65 94 -68 84 -97 128 -106 164 -4 16 -19 32 -40 42
-19 9 -42 28 -51 42 -9 14 -20 25 -25 25 -13 0 -59 46 -59 59 0 6 -6 11 -13
11 -8 0 -23 10 -35 23 -11 12 -61 51 -111 87 -103 75 -119 94 -98 118 22 26
32 46 19 38 -7 -4 -12 -1 -12 6 0 9 -3 9 -8 2 -13 -20 -39 -22 -54 -6 -20 23
-57 52 -64 52 -4 0 -15 10 -25 21 -12 14 -33 23 -60 25 -23 1 -45 8 -49 14 -5
7 -11 6 -20 -5 -7 -8 -19 -15 -27 -15 -25 0 -147 63 -174 91 -14 14 -33 29
-43 32 -20 8 -21 27 -1 53 8 10 15 27 15 37 0 10 7 29 16 42 9 13 14 30 11 37
-2 7 3 21 11 31 8 9 17 31 19 49 2 17 8 37 13 43 6 7 7 20 4 29 -4 11 -2 16 7
14 8 -2 13 7 13 22 1 15 -4 24 -11 22 -7 -1 -13 2 -13 8 0 5 9 10 19 10 10 0
22 7 25 16 5 12 2 15 -10 10 -13 -5 -15 -2 -11 14 3 11 2 20 -2 20 -3 0 -11
10 -16 23 l-10 22 -325 2 c-306 2 -326 1 -347 -16z m667 -91 c0 -5 -5 -10 -11
-10 -5 0 -7 5 -4 10 3 6 8 10 11 10 2 0 4 -4 4 -10z m-60 -190 c0 -5 -5 -10
-11 -10 -5 0 -7 5 -4 10 3 6 8 10 11 10 2 0 4 -4 4 -10z m-849 -630 c141 -26
286 -138 433 -335 74 -99 96 -121 178 -177 160 -109 312 -276 481 -531 107
-159 317 -509 317 -525 0 -18 -43 -8 -81 18 -42 30 -58 -10 -18 -46 37 -33
379 -514 451 -634 65 -107 15 -77 -105 63 -96 112 -337 411 -394 488 -41 56
-42 56 -104 63 -35 4 -78 14 -95 21 -31 13 -34 12 -49 -12 -22 -33 -110 -73
-163 -73 -35 0 -44 4 -52 23 -5 12 -9 18 -9 12 -8 -113 -56 -305 -94 -379 -11
-20 -13 -36 -7 -52 27 -70 66 -127 124 -181 35 -34 62 -64 59 -67 -8 -8 -128
-8 -189 1 -40 5 -56 14 -97 55 -26 26 -49 48 -51 48 -2 0 -33 -20 -70 -45 -98
-65 -185 -90 -321 -89 -77 0 -128 5 -170 18 -242 72 -399 267 -441 548 -18
117 -13 200 17 326 34 139 88 240 180 337 42 45 47 53 31 57 -26 7 -67 115
-88 228 -16 87 -16 99 1 216 18 127 16 223 -5 250 -15 17 -30 9 -30 -17 0 -23
5 -23 -80 0 -84 24 -296 46 -351 37 -23 -4 -39 -2 -39 3 0 19 126 112 198 147
70 35 188 63 263 64 32 0 37 4 57 45 43 90 156 124 313 95z m-1007 -1005 c188
-40 333 -161 422 -352 94 -200 91 -451 -7 -658 -105 -223 -279 -335 -521 -335
-315 0 -530 225 -578 604 -27 211 50 456 184 591 134 133 318 189 500 150z
m2242 -1014 c49 -30 54 -36 102 -150 28 -65 54 -131 58 -146 l7 -28 -59 7
c-32 4 -62 10 -67 15 -10 10 -137 338 -137 353 0 6 10 4 23 -4 12 -9 45 -29
73 -47z m-1938 -530 c8 -5 12 -22 10 -42 -3 -33 -4 -34 -53 -37 -27 -1 -65 -5
-84 -8 l-34 -5 4 -217 4 -217 -35 0 -35 0 -7 209 c-4 115 -9 215 -12 222 -4
10 -25 14 -75 14 -67 0 -71 1 -77 25 -13 52 -8 54 168 58 90 1 174 3 188 5 14
1 31 -2 38 -7z m132 -1 c11 -7 16 -36 20 -112 l5 -103 128 -3 127 -3 0 53 c1
82 16 140 40 160 18 15 41 18 121 18 94 0 100 -1 108 -22 15 -41 4 -48 -78
-48 -47 0 -83 -5 -93 -12 -19 -16 -30 -68 -21 -109 l6 -32 75 7 c85 7 102 -1
102 -45 0 -29 -1 -29 -57 -29 -101 0 -103 -2 -103 -80 0 -43 5 -71 13 -78 7
-6 46 -12 87 -14 l75 -3 0 -35 0 -35 -97 0 c-88 0 -100 2 -120 23 -20 20 -23
34 -26 122 l-4 100 -131 0 c-73 0 -137 -4 -143 -8 -7 -4 -11 -46 -10 -117 l1
-110 -32 -3 c-29 -3 -32 0 -37 30 -9 60 -17 412 -10 456 7 43 22 52 54 32z
m1215 -6 c9 -9 15 -28 13 -43 -3 -26 -4 -26 -78 -23 -65 3 -79 1 -109 -20 -52
-35 -74 -87 -74 -172 0 -85 22 -139 67 -167 38 -23 94 -24 141 -2 38 18 50 13
60 -27 14 -57 -63 -90 -164 -69 -75 15 -116 42 -148 97 -35 60 -44 189 -19
276 20 67 79 138 128 154 55 17 164 15 183 -4z m144 2 c8 -9 12 -45 11 -93 -2
-137 -13 -123 90 -123 l90 0 0 84 c0 107 8 146 29 146 45 -1 46 -5 42 -257 -1
-131 -7 -246 -12 -255 -6 -11 -21 -18 -40 -18 l-31 0 3 118 4 117 -35 3 c-19
2 -59 1 -89 -3 l-54 -7 6 -98 c7 -109 -2 -134 -44 -128 l-24 3 -3 263 -2 262
24 0 c13 0 29 -6 35 -14z"/>
<path d="M2205 3975 c-5 -2 -30 -9 -54 -15 -23 -6 -40 -14 -37 -18 9 -8 119
-37 234 -62 148 -32 182 -26 182 31 0 34 -13 44 -78 58 -49 10 -224 14 -247 6z"/>
<path d="M2691 3397 c2 -1 12 -9 22 -16 15 -12 17 -12 11 3 -3 9 -13 16 -22
16 -8 0 -13 -1 -11 -3z"/>
<path d="M2929 3359 c-13 -26 5 -43 31 -29 10 6 21 5 27 -1 6 -6 10 -5 10 5 0
8 -4 13 -9 10 -4 -3 -8 2 -8 11 0 15 -1 15 -16 1 -21 -21 -27 -20 -21 4 7 26
1 25 -14 -1z"/>
<path d="M2572 3361 c-11 -7 -11 -9 1 -14 16 -6 27 0 27 15 0 10 -11 10 -28
-1z"/>
<path d="M2758 3363 c6 -2 18 -2 25 0 6 3 1 5 -13 5 -14 0 -19 -2 -12 -5z"/>
<path d="M2890 3360 c0 -5 5 -10 11 -10 5 0 7 5 4 10 -3 6 -8 10 -11 10 -2 0
-4 -4 -4 -10z"/>
<path d="M3009 3356 c7 -9 6 -19 -5 -34 -15 -21 -42 -32 -29 -12 4 6 -6 7 -27
3 -44 -8 -48 -13 -10 -13 18 0 32 -5 32 -11 0 -6 -7 -9 -15 -6 -8 4 -17 2 -20
-3 -4 -6 -1 -10 5 -10 6 0 8 -5 5 -11 -4 -6 -1 -10 6 -8 28 3 50 -1 45 -10 -8
-12 -80 -5 -84 9 -3 8 -8 7 -19 -1 -12 -10 -16 -10 -24 2 -6 10 -9 10 -9 2 0
-16 -36 -17 -45 -2 -4 6 -13 8 -21 5 -8 -3 -17 1 -20 9 -7 18 -34 20 -34 3 0
-10 -3 -9 -9 1 -6 9 -23 12 -55 10 -25 -2 -46 -1 -46 3 0 5 9 8 20 8 22 0 27
24 8 36 -18 11 -88 12 -95 1 -4 -6 2 -8 15 -5 12 4 22 2 22 -3 0 -5 -8 -9 -17
-9 -9 0 -13 -3 -9 -7 7 -8 11 -9 37 -12 5 0 7 -6 4 -11 -4 -6 -11 -8 -16 -5
-5 4 -9 0 -9 -7 0 -9 -3 -9 -10 2 -9 13 -10 13 -10 0 0 -10 -3 -11 -8 -4 -11
16 -44 14 -38 -3 3 -8 1 -11 -4 -8 -6 4 -17 0 -25 -9 -13 -13 -13 -15 7 -22
13 -5 27 -7 32 -5 5 1 3 -6 -5 -15 -13 -16 -12 -17 11 -10 56 16 225 18 300 3
53 -11 78 -12 85 -5 7 8 5 9 -6 5 -24 -8 -39 6 -23 21 8 7 14 8 14 2 0 -5 9
-10 20 -10 11 0 19 -3 19 -7 -4 -22 4 -34 29 -46 15 -8 33 -12 40 -10 6 3 12
0 12 -6 0 -6 9 -11 20 -11 11 0 20 -5 20 -11 0 -5 -6 -7 -12 -4 -7 4 -2 -3 11
-14 12 -12 28 -18 34 -14 6 3 7 1 3 -5 -4 -6 4 -16 16 -23 19 -9 21 -9 11 2
-24 25 -13 30 12 5 27 -27 33 -42 13 -30 -7 5 8 -15 34 -44 83 -93 141 -219
154 -333 11 -104 29 -130 24 -36 -1 21 3 37 9 37 6 0 11 15 11 33 0 18 5 38
12 45 9 9 9 15 0 24 -7 7 -11 21 -11 32 1 17 2 18 6 4 6 -24 23 -23 23 2 0 11
-6 20 -12 20 -9 0 -8 4 2 10 10 6 11 10 3 10 -7 0 -13 5 -13 10 0 7 6 7 19 0
13 -7 22 -7 26 0 3 5 -1 10 -9 10 -9 0 -16 5 -16 11 0 5 -4 8 -8 5 -4 -2 -6
12 -4 32 4 32 3 35 -11 24 -18 -16 -24 -8 -26 38 -3 55 -4 59 -11 55 -4 -2
-17 9 -29 26 -12 16 -26 27 -31 24 -5 -3 -14 3 -20 12 -10 16 -11 16 -7 -4 4
-18 1 -23 -16 -23 -17 0 -19 2 -8 9 7 5 10 14 7 20 -4 6 -11 9 -15 6 -13 -7
-61 42 -61 62 0 14 2 15 9 5 7 -11 10 -10 15 3 9 23 8 24 -15 18 -16 -5 -20
-12 -16 -31 3 -14 1 -37 -4 -50 l-10 -25 -22 24 c-12 13 -22 37 -22 52 0 24 3
28 23 24 14 -3 22 1 22 9 0 8 -4 14 -10 14 -6 0 -6 9 0 25 7 20 6 25 -5 25 -8
0 -15 8 -15 18 0 14 -2 15 -10 2 -9 -13 -14 -7 -11 13 0 4 -4 7 -10 7 -8 0 -8
4 0 13 11 15 9 15 -49 19 -23 1 -26 3 -15 12 12 9 11 13 -11 23 -20 9 -23 9
-15 -1z m-349 -47 c0 -11 -21 -11 -39 0 -9 6 -5 9 13 9 14 0 26 -4 26 -9z
m207 -101 c-3 -8 -6 -5 -6 6 -1 11 2 17 5 13 3 -3 4 -12 1 -19z m190 -4 c-3
-3 -12 -4 -19 -1 -8 3 -5 6 6 6 11 1 17 -2 13 -5z m36 -19 c4 -8 2 -17 -3 -20
-6 -4 -10 3 -10 14 0 25 6 27 13 6z m127 -98 c0 -8 -7 -14 -15 -14 -8 0 -15 6
-15 14 0 7 7 13 15 13 8 0 15 -6 15 -13z m83 -37 c-3 -12 -8 -19 -11 -16 -5 6
5 36 12 36 2 0 2 -9 -1 -20z m91 -148 c-6 -4 -14 -14 -17 -22 -4 -10 -6 -8 -6
8 -1 15 5 22 17 22 10 0 13 -3 6 -8z"/>
<path d="M2858 3353 c7 -3 16 -2 19 1 4 3 -2 6 -13 5 -11 0 -14 -3 -6 -6z"/>
<path d="M2498 3323 c7 -3 16 -2 19 1 4 3 -2 6 -13 5 -11 0 -14 -3 -6 -6z"/>
<path d="M2685 3320 c3 -5 10 -10 16 -10 5 0 9 5 9 10 0 6 -7 10 -16 10 -8 0
-12 -4 -9 -10z"/>
<path d="M2526 3298 c3 -4 11 -5 19 -1 21 7 19 12 -4 10 -11 0 -18 -5 -15 -9z"/>
<path d="M2500 3199 c0 -5 -4 -7 -10 -4 -5 3 -10 1 -10 -4 0 -6 7 -11 15 -11
8 0 15 7 15 15 0 8 -2 15 -5 15 -3 0 -5 -5 -5 -11z"/>
<path d="M3135 3150 c-7 -11 14 -55 22 -46 3 3 0 12 -7 21 -11 13 -10 14 4 9
12 -5 15 -2 10 10 -7 18 -20 21 -29 6z"/>
<path d="M2668 2953 c6 -2 18 -2 25 0 6 3 1 5 -13 5 -14 0 -19 -2 -12 -5z"/>
<path d="M2529 2930 c-107 -56 -179 -229 -179 -427 1 -265 135 -423 358 -423
77 0 157 16 201 39 36 20 102 83 126 121 34 55 64 143 71 213 7 68 -2 204 -15
225 -4 6 -81 33 -171 59 -91 25 -176 55 -190 66 -46 34 -92 100 -87 124 4 21
1 23 -37 23 -22 -1 -57 -9 -77 -20z"/>
<path d="M1345 2932 c-101 -33 -178 -140 -206 -286 -14 -73 -11 -213 6 -284
42 -176 142 -270 301 -280 161 -10 269 70 325 240 31 94 33 270 5 363 -38 129
-111 218 -203 249 -59 20 -164 19 -228 -2z"/>
<path d="M4010 5104 c0 -10 42 -35 118 -71 101 -48 162 -84 316 -189 17 -12
40 -31 50 -43 11 -11 23 -21 29 -21 46 0 390 -344 520 -522 31 -42 61 -80 67
-83 7 -4 10 152 10 469 l0 476 -555 0 c-496 0 -555 -2 -555 -16z"/>
<path d="M2057 5075 c3 -14 10 -25 15 -25 13 0 6 43 -8 47 -7 2 -10 -6 -7 -22z"/>
<path d="M1971 4984 c0 -11 3 -14 6 -6 3 7 2 16 -1 19 -3 4 -6 -2 -5 -13z"/>
<path d="M4276 4883 c-6 -14 -5 -15 5 -6 7 7 10 15 7 18 -3 3 -9 -2 -12 -12z"/>
<path d="M1825 4880 c-3 -5 -1 -10 4 -10 6 0 11 5 11 10 0 6 -2 10 -4 10 -3 0
-8 -4 -11 -10z"/>
<path d="M4402 4810 c0 -14 2 -19 5 -12 2 6 2 18 0 25 -3 6 -5 1 -5 -13z"/>
<path d="M2680 4805 c-7 -9 -8 -15 -2 -15 5 0 12 7 16 15 3 8 4 15 2 15 -2 0
-9 -7 -16 -15z"/>
<path d="M2616 4771 c-3 -5 1 -11 9 -15 9 -3 15 0 15 9 0 16 -16 20 -24 6z"/>
<path d="M3975 4769 c-4 -6 -5 -12 -2 -15 2 -3 7 2 10 11 7 17 1 20 -8 4z"/>
<path d="M4475 4749 c-4 -6 -5 -13 -2 -16 7 -7 27 6 27 18 0 12 -17 12 -25 -2z"/>
<path d="M1760 4715 c0 -8 2 -15 4 -15 2 0 6 7 10 15 3 8 1 15 -4 15 -6 0 -10
-7 -10 -15z"/>
<path d="M3810 4721 c0 -6 5 -13 10 -16 6 -3 10 1 10 9 0 9 -4 16 -10 16 -5 0
-10 -4 -10 -9z"/>
<path d="M2050 4705 c0 -8 2 -15 4 -15 2 0 6 7 10 15 3 8 1 15 -4 15 -6 0 -10
-7 -10 -15z"/>
<path d="M3922 4678 c-17 -36 -20 -87 -5 -99 10 -9 13 -8 13 4 0 8 6 17 12 19
17 6 20 98 3 98 -6 0 -17 -10 -23 -22z"/>
<path d="M4555 4691 c-3 -5 -1 -12 5 -16 5 -3 10 1 10 9 0 18 -6 21 -15 7z"/>
<path d="M1360 4634 c0 -8 5 -12 10 -9 6 4 8 11 5 16 -9 14 -15 11 -15 -7z"/>
<path d="M1680 4626 c0 -9 5 -16 10 -16 6 0 10 4 10 9 0 6 -4 13 -10 16 -5 3
-10 -1 -10 -9z"/>
<path d="M1406 4581 c-4 -7 -5 -15 -2 -18 9 -9 19 4 14 18 -4 11 -6 11 -12 0z"/>
<path d="M1595 4570 c3 -5 8 -10 11 -10 2 0 4 5 4 10 0 6 -5 10 -11 10 -5 0
-7 -4 -4 -10z"/>
<path d="M1016 4523 c-3 -10 -9 -24 -12 -31 -5 -12 -2 -12 17 -1 28 14 40 30
33 41 -9 14 -31 8 -38 -9z"/>
<path d="M790 4522 c0 -5 7 -13 16 -16 10 -4 14 -1 12 6 -5 15 -28 23 -28 10z"/>
<path d="M730 4480 c0 -5 5 -10 10 -10 6 0 10 5 10 10 0 6 -4 10 -10 10 -5 0
-10 -4 -10 -10z"/>
<path d="M1410 4474 c0 -8 5 -12 10 -9 6 4 8 11 5 16 -9 14 -15 11 -15 -7z"/>
<path d="M847 4473 c-4 -3 -7 -11 -7 -17 0 -6 5 -5 12 2 6 6 9 14 7 17 -3 3
-9 2 -12 -2z"/>
<path d="M1380 4449 c0 -5 5 -7 10 -4 6 3 10 8 10 11 0 2 -4 4 -10 4 -5 0 -10
-5 -10 -11z"/>
<path d="M4796 4441 c-4 -7 -5 -15 -2 -18 9 -9 19 4 14 18 -4 11 -6 11 -12 0z"/>
<path d="M1000 4385 c0 -8 5 -15 10 -15 6 0 10 7 10 15 0 8 -4 15 -10 15 -5 0
-10 -7 -10 -15z"/>
<path d="M4850 4379 c0 -5 5 -7 10 -4 6 3 10 8 10 11 0 2 -4 4 -10 4 -5 0 -10
-5 -10 -11z"/>
<path d="M945 4330 c-3 -5 -1 -10 4 -10 6 0 11 5 11 10 0 6 -2 10 -4 10 -3 0
-8 -4 -11 -10z"/>
<path d="M4925 4290 c3 -5 8 -10 11 -10 2 0 4 5 4 10 0 6 -5 10 -11 10 -5 0
-7 -4 -4 -10z"/>
<path d="M1000 4264 c0 -8 5 -12 10 -9 6 4 8 11 5 16 -9 14 -15 11 -15 -7z"/>
<path d="M4050 4270 c0 -5 7 -10 15 -10 8 0 15 5 15 10 0 6 -7 10 -15 10 -8 0
-15 -4 -15 -10z"/>
<path d="M946 4205 c4 -8 7 -15 9 -15 2 0 5 7 9 15 3 9 0 15 -9 15 -9 0 -12
-6 -9 -15z"/>
<path d="M4700 4109 c0 -5 5 -7 10 -4 6 3 10 8 10 11 0 2 -4 4 -10 4 -5 0 -10
-5 -10 -11z"/>
<path d="M475 3950 c-3 -5 -1 -10 4 -10 6 0 11 5 11 10 0 6 -2 10 -4 10 -3 0
-8 -4 -11 -10z"/>
<path d="M4605 3829 c-9 -14 -2 -20 14 -10 8 6 9 11 3 15 -6 3 -14 1 -17 -5z"/>
<path d="M4574 3822 c4 -7 1 -12 -8 -12 -8 0 -18 -4 -21 -10 -9 -14 8 -12 30
3 14 11 15 16 5 22 -9 5 -11 4 -6 -3z"/>
<path d="M4517 3755 c-4 -8 -1 -17 6 -21 7 -4 9 -4 5 1 -4 4 -3 14 3 22 7 8 8
13 1 13 -5 0 -12 -7 -15 -15z"/>
<path d="M6 3677 c3 -10 9 -15 12 -12 3 3 0 11 -7 18 -10 9 -11 8 -5 -6z"/>
<path d="M5096 3593 c-6 -14 -5 -15 5 -6 7 7 10 15 7 18 -3 3 -9 -2 -12 -12z"/>
<path d="M0 3364 c0 -8 5 -12 10 -9 6 4 8 11 5 16 -9 14 -15 11 -15 -7z"/>
<path d="M35 3340 c-3 -5 1 -10 10 -10 9 0 13 5 10 10 -3 6 -8 10 -10 10 -2 0
-7 -4 -10 -10z"/>
<path d="M5035 3331 c-3 -5 2 -11 10 -15 8 -3 17 -1 20 3 3 5 -2 11 -10 15 -8
3 -17 1 -20 -3z"/>
<path d="M4740 3275 c0 -8 5 -15 10 -15 6 0 10 7 10 15 0 8 -4 15 -10 15 -5 0
-10 -7 -10 -15z"/>
<path d="M4845 3240 c-3 -5 1 -10 9 -10 9 0 16 5 16 10 0 6 -4 10 -9 10 -6 0
-13 -4 -16 -10z"/>
<path d="M5008 1823 c7 -3 16 -2 19 1 4 3 -2 6 -13 5 -11 0 -14 -3 -6 -6z"/>
<path d="M4989 1798 c8 -22 41 -35 41 -16 0 6 -7 8 -14 5 -10 -4 -13 -1 -10 7
3 7 -2 16 -10 19 -12 5 -13 1 -7 -15z"/>
<path d="M245 1581 c-6 -11 9 -23 19 -14 9 9 7 23 -3 23 -6 0 -12 -4 -16 -9z"/>
<path d="M444 1529 c-3 -6 -1 -16 5 -22 8 -8 11 -5 11 11 0 24 -5 28 -16 11z"/>
<path d="M282 1511 c2 -7 7 -12 11 -12 12 1 9 15 -3 20 -7 2 -11 -2 -8 -8z"/>
<path d="M420 1269 c0 -5 5 -7 10 -4 6 3 10 8 10 11 0 2 -4 4 -10 4 -5 0 -10
-5 -10 -11z"/>
<path d="M5111 1154 c0 -11 3 -14 6 -6 3 7 2 16 -1 19 -3 4 -6 -2 -5 -13z"/>
<path d="M0 531 l0 -531 591 0 c324 0 588 4 585 8 -3 5 -45 28 -93 52 -78 38
-171 93 -255 151 -15 11 -31 19 -37 19 -5 0 -11 3 -13 8 -1 4 -23 21 -48 37
-25 17 -49 35 -55 41 -5 5 -26 22 -46 36 -20 15 -56 45 -80 68 -24 22 -55 51
-69 64 -104 96 -350 371 -350 390 0 8 -67 105 -91 132 -11 11 -19 25 -19 32 0
6 -4 14 -10 17 -7 4 -10 -173 -10 -524z"/>
<path d="M5055 960 c-3 -5 -1 -10 4 -10 6 0 11 5 11 10 0 6 -2 10 -4 10 -3 0
-8 -4 -11 -10z"/>
<path d="M4790 919 c0 -5 5 -7 10 -4 6 3 10 8 10 11 0 2 -4 4 -10 4 -5 0 -10
-5 -10 -11z"/>
<path d="M5072 836 c-184 -270 -515 -583 -735 -696 -15 -8 -45 -32 -66 -55
-21 -22 -50 -51 -66 -63 l-28 -22 472 0 471 0 0 450 c0 248 -1 450 -2 450 -2
0 -23 -29 -46 -64z"/>
<path d="M971 881 c-8 -5 -9 -11 -3 -15 5 -3 12 1 16 9 6 17 6 18 -13 6z"/>
<path d="M4200 880 c0 -5 5 -10 10 -10 6 0 10 5 10 10 0 6 -4 10 -10 10 -5 0
-10 -4 -10 -10z"/>
<path d="M1040 719 c0 -5 5 -7 10 -4 6 3 10 8 10 11 0 2 -4 4 -10 4 -5 0 -10
-5 -10 -11z"/>
<path d="M1195 580 c3 -5 8 -10 11 -10 2 0 4 5 4 10 0 6 -5 10 -11 10 -5 0 -7
-4 -4 -10z"/>
<path d="M4140 570 c0 -6 7 -10 15 -10 8 0 15 2 15 4 0 2 -7 6 -15 10 -8 3
-15 1 -15 -4z"/>
<path d="M1265 530 c4 -6 11 -8 16 -5 14 9 11 15 -7 15 -8 0 -12 -5 -9 -10z"/>
<path d="M1335 490 c-3 -5 -1 -10 4 -10 6 0 11 5 11 10 0 6 -2 10 -4 10 -3 0
-8 -4 -11 -10z"/>
<path d="M1085 400 c-3 -5 -1 -10 4 -10 6 0 11 5 11 10 0 6 -2 10 -4 10 -3 0
-8 -4 -11 -10z"/>
<path d="M1637 399 c7 -7 15 -10 18 -7 3 3 -2 9 -12 12 -14 6 -15 5 -6 -5z"/>
<path d="M1048 353 c3 -17 7 -22 10 -13 3 8 9 21 15 28 7 9 4 12 -10 12 -17 0
-19 -5 -15 -27z"/>
<path d="M1115 370 c3 -5 8 -10 11 -10 2 0 4 5 4 10 0 6 -5 10 -11 10 -5 0 -7
-4 -4 -10z"/>
<path d="M3387 351 c-2 -10 -1 -25 4 -32 6 -10 9 -4 9 19 0 36 -5 42 -13 13z"/>
<path d="M3565 340 c-3 -5 -1 -10 4 -10 6 0 11 5 11 10 0 6 -2 10 -4 10 -3 0
-8 -4 -11 -10z"/>
<path d="M1006 305 c4 -8 10 -12 15 -9 11 6 2 24 -11 24 -5 0 -7 -7 -4 -15z"/>
<path d="M1130 214 c0 -8 5 -12 10 -9 6 3 10 10 10 16 0 5 -4 9 -10 9 -5 0
-10 -7 -10 -16z"/>
<path d="M1286 141 c-4 -7 -5 -15 -2 -18 9 -9 19 4 14 18 -4 11 -6 11 -12 0z"/>
<path d="M4060 35 c-14 -16 -3 -20 19 -6 8 5 9 11 3 15 -5 3 -15 -1 -22 -9z"/>
<path d="M1412 28 c-14 -14 -16 -28 -3 -28 9 0 24 30 18 36 -2 2 -9 -2 -15 -8z"/>
<path d="M3847 9 c7 -7 15 -10 18 -7 3 3 -2 9 -12 12 -14 6 -15 5 -6 -5z"/>
</g>
</svg>
